# xmcd CD database file
#
# Track frame offsets:
#	150
#	27004
#	49625
#	76219
#	101913
#	129347
#	152753
#	182875
#	208710
#	232005
#
# Disc length: 3400 seconds
#
# Revision: 2
# Processed by: cddbd v1.5.2PL0 Copyright (c) Steve Scherf et al.
# Submitted via: CDex 1.76
#
DISCID=7d0d460a
DTITLE=Artisti Vari - Wellness - Magic Moments CD 2
DYEAR=1900
DGENRE=New Age
TTITLE0=Awakening - Jasper Johannson
TTITLE1=To calm down - Lina Bostrom
TTITLE2=Pearls in the wind - Jasper Johannson
TTITLE3=No regrets - Lina Bostrom
TTITLE4=Breath in Jasper Johannson
TTITLE5=Feeling home - Lina Bostrom
TTITLE6=Heavenly light - Lina Bostrom
TTITLE7=Inner reserve - Jasper Johannson
TTITLE8=Finding a way out - Lina Bostrom
TTITLE9=Being together - Lina Bostrom
EXTD=
EXTT0=
EXTT1=
EXTT2=
EXTT3=
EXTT4=
EXTT5=
EXTT6=
EXTT7=
EXTT8=
EXTT9=
PLAYORDER=
